<svg width="282" height="299" viewBox="0 0 282 299" fill="none" xmlns="http://www.w3.org/2000/svg">
<path d="M2.754 25.2C2.754 39.65 13.396 49.816 26.588 49.816C35.768 49.816 43.35 45.668 48.144 36.998L43.894 34.006C40.358 39.956 34.204 44.172 26.758 44.172C17.85 44.172 9.248 37.61 9.248 25.2C9.248 12.79 17.884 6.228 26.792 6.228C33.626 6.228 39.984 10.104 42.194 17.346H48.824C46.376 7.044 37.91 0.583999 26.588 0.583999C13.396 0.583999 2.754 10.75 2.754 25.2ZM72.4896 44.274C65.2816 44.274 59.7396 38.494 59.7396 31.388C59.7396 24.282 65.2816 18.502 72.4896 18.502C79.6976 18.502 85.2396 24.282 85.2396 31.388C85.2396 38.494 79.6976 44.274 72.4896 44.274ZM72.4896 12.96C61.5076 12.96 53.4496 21.222 53.4496 31.388C53.4496 41.554 61.5076 49.816 72.4896 49.816C83.4716 49.816 91.5296 41.554 91.5296 31.388C91.5296 21.222 83.4716 12.96 72.4896 12.96ZM105.183 29.382C105.183 23.228 110.079 18.502 115.451 18.502C121.197 18.502 124.597 22.072 124.597 27.682V49H130.785V27.342C130.785 18.502 125.277 12.96 116.607 12.96C111.643 12.96 107.461 15.646 105.183 19.182V13.776H98.9953V49H105.183V29.382ZM146.222 29.382C146.222 23.228 151.118 18.502 156.49 18.502C162.236 18.502 165.636 22.072 165.636 27.682V49H171.824V27.342C171.824 18.502 166.316 12.96 157.646 12.96C152.682 12.96 148.5 15.646 146.222 19.182V13.776H140.034V49H146.222V29.382ZM184.949 33.326H214.903C215.073 32.578 215.209 31.49 215.209 30.606C215.209 20.916 207.763 12.96 197.257 12.96C186.547 12.96 178.625 21.188 178.625 31.388C178.625 41.588 186.309 49.816 197.767 49.816C204.907 49.816 209.497 46.756 213.305 42.234L209.735 38.868C206.165 42.54 202.595 44.478 197.597 44.478C190.797 44.478 185.629 39.616 184.949 33.326ZM197.257 18.298C203.207 18.298 207.763 22.514 208.715 28.192H185.187C186.411 22.582 191.375 18.298 197.257 18.298ZM220.262 31.388C220.262 41.996 229.238 49.816 238.996 49.816C245.932 49.816 251.542 46.586 254.874 40.398L250.692 37.984C248.108 42.03 243.926 44.274 239.472 44.274C233.08 44.274 226.552 39.548 226.552 31.388C226.552 23.262 232.774 18.502 238.758 18.502C243.552 18.502 247.428 21.086 248.754 25.506H255.316C253.446 17.618 246.782 12.96 238.316 12.96C228.184 12.96 220.262 20.814 220.262 31.388ZM271.599 19.216H281.221V13.776H271.599V3.576L265.411 5.276V13.776H258.033V19.216H265.411V37.814C265.411 46.008 269.389 49.816 276.597 49.816C278.331 49.816 280.371 49.476 281.629 48.864V44.206C280.847 44.308 279.453 44.376 278.467 44.376C273.503 44.376 271.599 42.2 271.599 37.746V19.216ZM23.834 77.632C22.916 77.496 21.522 77.36 20.23 77.36C11.628 77.36 7.616 81.338 7.616 89.634V91.776H0.51V97.216H7.616V127H13.804V97.216H23.834V91.776H13.804V89.702C13.804 85.146 15.708 82.8 20.74 82.8C21.726 82.8 22.984 82.868 23.834 82.97V77.632ZM50.9352 91.198C49.9832 91.028 48.9972 90.96 47.9432 90.96C42.9792 90.96 38.7972 93.646 36.5192 97.182V91.776H30.3312V127H36.5192V107.382C36.5192 101.228 41.4152 96.502 46.7872 96.502C48.1132 96.502 49.3372 96.672 50.3912 97.046L50.9352 91.198ZM58.0417 127H64.2297V91.776H58.0417V127ZM57.0557 81.95C57.0557 84.228 58.8237 85.996 61.1357 85.996C63.4477 85.996 65.2157 84.228 65.2157 81.95C65.2157 79.638 63.4477 77.87 61.1357 77.87C58.8237 77.87 57.0557 79.638 57.0557 81.95ZM78.8322 111.326H108.786C108.956 110.578 109.092 109.49 109.092 108.606C109.092 98.916 101.646 90.96 91.1402 90.96C80.4302 90.96 72.5082 99.188 72.5082 109.388C72.5082 119.588 80.1922 127.816 91.6502 127.816C98.7902 127.816 103.38 124.756 107.188 120.234L103.618 116.868C100.048 120.54 96.4782 122.478 91.4802 122.478C84.6802 122.478 79.5122 117.616 78.8322 111.326ZM91.1402 96.298C97.0902 96.298 101.646 100.514 102.598 106.192H79.0702C80.2942 100.582 85.2582 96.298 91.1402 96.298ZM122.781 107.382C122.781 101.228 127.677 96.502 133.049 96.502C138.795 96.502 142.195 100.072 142.195 105.682V127H148.383V105.342C148.383 96.502 142.875 90.96 134.205 90.96C129.241 90.96 125.059 93.646 122.781 97.182V91.776H116.593V127H122.781V107.382ZM155.184 109.388C155.184 119.588 162.528 127.816 172.558 127.816C177.93 127.816 182.52 125.436 185.614 121.662V127H191.802V77.36H185.614V97.114C182.52 93.34 177.93 90.926 172.558 90.926C162.528 90.926 155.184 99.188 155.184 109.388ZM161.474 109.388C161.474 102.282 166.506 96.502 173.612 96.502C180.718 96.502 185.614 102.282 185.614 109.388C185.614 116.494 180.548 122.24 173.612 122.24C166.676 122.24 161.474 116.494 161.474 109.388ZM199.822 121.288C202.95 125.3 207.166 127.816 212.946 127.816C221.14 127.816 225.934 123.328 225.934 117.378C225.934 111.53 222.024 107.994 213.932 106.396C209.036 105.41 206.656 103.336 206.656 100.82C206.656 98.168 209.07 96.298 212.708 96.298C216.244 96.298 218.352 98.372 218.488 101.194H224.71C223.86 94.428 219.066 90.96 212.266 90.96C204.888 90.96 200.468 95.176 200.468 100.718C200.468 106.192 204.174 109.83 211.926 111.326C217.434 112.38 219.746 114.318 219.746 117.276C219.746 120.404 216.992 122.478 212.538 122.478C208.526 122.478 205.024 120.54 202.746 117.786L199.822 121.288ZM11.662 190.176H39.406C39.644 189.224 39.814 187.864 39.814 186.776C39.814 176.95 32.13 168.96 21.352 168.96C10.438 168.96 2.21 177.086 2.21 187.388C2.21 197.69 10.2 205.816 22.236 205.816C29.546 205.816 34.646 202.688 38.488 198.336L33.796 193.644C30.498 196.738 27.03 198.37 22.202 198.37C16.558 198.37 12.478 195.072 11.662 190.176ZM21.284 176.406C25.84 176.406 29.172 179.33 30.192 183.512H11.9C13.158 179.228 16.864 176.406 21.284 176.406ZM44.2452 187.388C44.2452 197.69 51.4192 205.816 61.2452 205.816C66.1752 205.816 70.1532 203.912 72.9752 200.784V205H82.2232V169.776H72.9752V173.992C70.1532 170.864 66.1752 168.96 61.2452 168.96C51.4192 168.96 44.2452 177.086 44.2452 187.388ZM53.6292 187.388C53.6292 181.676 57.8452 177.222 63.2512 177.222C68.6912 177.222 72.9752 181.676 72.9752 187.388C72.9752 193.134 68.6912 197.554 63.2512 197.554C57.8452 197.554 53.6292 193.134 53.6292 187.388ZM89.6846 198.472C93.2886 203.266 97.5726 205.816 102.843 205.816C111.581 205.816 116.783 201.158 116.783 194.936C116.783 188.986 113.043 185.246 104.883 183.58C100.939 182.764 99.2726 181.234 99.2726 179.364C99.2726 177.562 101.109 176.44 103.319 176.44C105.767 176.44 107.297 177.8 107.773 180.078H116.579C115.457 173.346 110.799 168.96 102.843 168.96C95.1926 168.96 90.1266 173.312 90.1266 179.228C90.1266 185.076 93.9346 188.952 101.585 190.516C106.141 191.434 107.637 192.726 107.637 194.834C107.637 196.976 105.699 198.336 102.469 198.336C99.0006 198.336 96.2806 196.84 93.5266 194.154L89.6846 198.472ZM123.626 205H132.976V169.776H123.626V205ZM122.776 160.392C122.776 163.452 125.19 165.798 128.318 165.798C131.446 165.798 133.86 163.452 133.86 160.392C133.86 157.332 131.446 154.986 128.318 154.986C125.19 154.986 122.776 157.332 122.776 160.392ZM142.419 205H151.769V155.36H142.419V205ZM173.656 220.776L192.39 169.776H182.666L174.71 193.168L166.89 169.776H157.166L170.086 205L163.898 220.776H173.656ZM249.399 169.096C248.379 161.412 243.143 156.584 234.643 156.584C227.095 156.584 220.839 161.616 220.839 168.45C220.839 171.918 221.859 174.774 225.429 178.786C219.853 182.424 217.167 186.64 217.167 192.25C217.167 200.002 224.341 205.816 234.099 205.816C239.607 205.816 244.435 203.946 248.277 200.784L253.717 205.85L259.463 199.798L253.819 194.46C256.131 190.652 257.559 186.096 258.001 181.166L249.229 179.908C248.889 182.968 248.175 185.892 247.189 188.068L236.105 177.63C231.345 173.176 229.883 170.66 229.883 168.382C229.883 166.036 231.957 163.996 234.677 163.996C237.873 163.996 239.607 166.104 240.355 169.13L249.399 169.096ZM234.099 198.098C229.475 198.098 226.381 195.276 226.381 191.638C226.381 189.02 227.673 186.708 231.038 184.396L242.259 195.004C239.743 197.146 236.819 198.098 234.099 198.098ZM2.21 265.388C2.21 275.69 9.384 283.816 19.21 283.816C24.14 283.816 28.118 281.912 30.94 278.784V298.776H40.188V247.776H30.94V251.992C28.118 248.864 24.14 246.96 19.21 246.96C9.384 246.96 2.21 255.086 2.21 265.388ZM11.594 265.388C11.594 259.676 15.81 255.222 21.216 255.222C26.656 255.222 30.94 259.676 30.94 265.388C30.94 271.134 26.656 275.554 21.216 275.554C15.81 275.554 11.594 271.134 11.594 265.388ZM62.4734 283.816C66.4854 283.816 70.0214 282.048 72.5034 279.09V283H81.8534V247.776H72.5034V266.544C72.5034 272.086 68.9334 275.554 64.5134 275.554C60.9094 275.554 57.8494 272.494 57.8494 268.584V247.776H48.4994V269.57C48.4994 278.104 54.2114 283.816 62.4734 283.816ZM91.0865 283H100.437V247.776H91.0865V283ZM90.2365 238.392C90.2365 241.452 92.6505 243.798 95.7785 243.798C98.9065 243.798 101.321 241.452 101.321 238.392C101.321 235.332 98.9065 232.986 95.7785 232.986C92.6505 232.986 90.2365 235.332 90.2365 238.392ZM137.284 270.148C134.734 273.48 131.198 275.554 126.948 275.554C120.862 275.554 116.782 271.134 116.782 265.388C116.782 259.676 120.862 255.222 125.928 255.222C129.464 255.222 131.912 256.922 133.034 259.608H143.2C141.091 251.856 134.938 246.96 125.928 246.96C115.422 246.96 107.398 255.086 107.398 265.388C107.398 275.69 115.422 283.816 126.608 283.816C133.408 283.816 138.712 280.518 142.248 273.99L137.284 270.148ZM169.706 247.776C169.706 257.194 166.136 259.574 161.988 259.574H159.302V233.36H149.952V283H159.302V267.598H162.906L171.406 283H181.776L171.95 265.592C176.608 262.736 179.056 256.854 179.056 247.776H169.706ZM186.579 283H195.929V233.36H186.579V283ZM217.816 298.776L236.55 247.776H226.826L218.87 271.168L211.05 247.776H201.326L214.246 283L208.058 298.776H217.816Z" fill="white"/>
</svg>
