<svg width="26" height="26" viewBox="0 0 26 26" fill="none" xmlns="http://www.w3.org/2000/svg">
<path d="M13.9189 4.33334H12.0805C11.0652 4.33334 10.2421 5.10938 10.2421 6.06668C10.2421 7.16216 9.06998 7.85863 8.10782 7.33487L8.01009 7.28167C7.1308 6.80302 6.00646 7.08707 5.4988 7.91612L4.57961 9.41723C4.07195 10.2463 4.37322 11.3064 5.2525 11.785C6.21512 12.309 6.21512 13.691 5.2525 14.215C4.37321 14.6937 4.07195 15.7538 4.5796 16.5828L5.4988 18.0839C6.00646 18.9129 7.1308 19.197 8.01009 18.7183L8.10782 18.6652C9.06997 18.1414 10.2421 18.8379 10.2421 19.9333C10.2421 20.8906 11.0652 21.6667 12.0805 21.6667H13.9189C14.9342 21.6667 15.7573 20.8906 15.7573 19.9333C15.7573 18.8379 16.9294 18.1414 17.8915 18.6651L17.9892 18.7183C18.8685 19.197 19.9929 18.9129 20.5005 18.0839L21.4197 16.5828C21.9274 15.7537 21.6261 14.6937 20.7468 14.215C19.7842 13.691 19.7842 12.309 20.7468 11.785C21.6261 11.3064 21.9274 10.2463 21.4197 9.41724L20.5005 7.91613C19.9929 7.08709 18.8685 6.80304 17.9892 7.28168L17.8915 7.33488C16.9294 7.85864 15.7573 7.16216 15.7573 6.06668C15.7573 5.10938 14.9342 4.33334 13.9189 4.33334Z" stroke="#24786D" stroke-width="1.5" stroke-linejoin="round"/>
<circle cx="13" cy="13" r="3.25" stroke="#24786D" stroke-width="1.5"/>
</svg>
